<svg width="23" height="21" viewBox="0 0 23 21" fill="none" xmlns="http://www.w3.org/2000/svg">
<path d="M10.9611 5.24175C10.9611 5.32459 11.0283 5.39175 11.1111 5.39175H22.0722V20.6473H0.15V0.947302H10.9611V5.24175ZM8.88889 18.7251C8.97173 18.7251 9.03889 18.6579 9.03889 18.5751V16.3529C9.03889 16.27 8.97173 16.2029 8.88889 16.2029H2.22222C2.13938 16.2029 2.07222 16.27 2.07222 16.3529V18.5751C2.07222 18.6579 2.13938 18.7251 2.22222 18.7251H8.88889ZM8.88889 14.2806C8.97173 14.2806 9.03889 14.2135 9.03889 14.1306V11.9084C9.03889 11.8256 8.97173 11.7584 8.88889 11.7584H2.22222C2.13938 11.7584 2.07222 11.8256 2.07222 11.9084V14.1306C2.07222 14.2135 2.13938 14.2806 2.22222 14.2806H8.88889ZM8.88889 9.83619C8.97173 9.83619 9.03889 9.76903 9.03889 9.68619V7.46397C9.03889 7.38113 8.97173 7.31397 8.88889 7.31397H2.22222C2.13938 7.31397 2.07222 7.38113 2.07222 7.46397V9.68619C2.07222 9.76903 2.13938 9.83619 2.22222 9.83619H8.88889ZM8.88889 5.39175C8.97173 5.39175 9.03889 5.32459 9.03889 5.24175V3.01952C9.03889 2.93668 8.97173 2.86952 8.88889 2.86952H2.22222C2.13938 2.86952 2.07222 2.93668 2.07222 3.01952V5.24175C2.07222 5.32459 2.13938 5.39175 2.22222 5.39175H8.88889ZM20 18.7251C20.0828 18.7251 20.15 18.6579 20.15 18.5751V7.46397C20.15 7.38113 20.0828 7.31397 20 7.31397H11.1111C11.0283 7.31397 10.9611 7.38113 10.9611 7.46397V18.5751C10.9611 18.6579 11.0283 18.7251 11.1111 18.7251H20ZM13.4833 9.83619H17.6278V11.7584H13.4833V9.83619ZM13.4833 14.2806H17.6278V16.2029H13.4833V14.2806Z" fill="#3D3D3D" stroke="white" stroke-width="0.3" stroke-linecap="round" stroke-linejoin="round"/>
</svg>
