<svg width="135" height="142" viewBox="0 0 135 142" fill="none" xmlns="http://www.w3.org/2000/svg">
<path fill-rule="evenodd" clip-rule="evenodd" d="M66.3222 3.49681C60.6638 3.3574 55.1097 5.03486 50.4745 8.28313C45.8394 11.5314 42.367 16.1795 40.5669 21.5457C40.44 21.924 40.1676 22.2362 39.8099 22.4131C39.4523 22.5901 39.0388 22.6172 38.6611 22.4885C35.0318 21.252 31.1769 20.8201 27.3639 21.2226C23.551 21.6251 19.8713 22.8525 16.5801 24.8195C13.289 26.7865 10.4653 29.4461 8.30491 32.6137C6.14455 35.7812 4.69928 39.381 4.0694 43.163C3.43951 46.9451 3.6401 50.8189 4.65725 54.5157C5.67439 58.2124 7.48373 61.6436 9.9597 64.5711C12.4357 67.4986 15.519 69.8523 18.9957 71.4689C22.4724 73.0855 26.2592 73.9262 30.0933 73.9327H104.835C108.308 73.9351 111.748 73.2531 114.958 71.9259C118.168 70.5987 121.085 68.6523 123.542 66.1977C125.999 63.7431 127.949 60.8284 129.28 57.6202C130.61 54.4129 131.296 50.975 131.298 47.5027C131.289 43.0201 130.142 38.6132 127.965 34.6949C125.788 30.7763 122.652 27.4746 118.85 25.0993C115.048 22.724 110.706 21.3527 106.229 21.1141C101.753 20.8755 97.289 21.7773 93.2563 23.7351C92.8567 23.929 92.3917 23.936 91.9865 23.7539C91.5813 23.5719 91.2777 23.2197 91.1573 22.7921C89.6236 17.3438 86.3844 12.5303 81.9148 9.05774C77.4452 5.58515 71.9805 3.63621 66.3222 3.49681ZM132.798 47.5005L134.298 47.5012C134.296 51.3684 133.533 55.1975 132.051 58.7697C130.569 62.3418 128.398 65.5871 125.662 68.3202C122.926 71.0532 119.678 73.2205 116.105 74.6983C112.531 76.176 108.701 76.9353 104.834 76.9327H30.0882C25.8188 76.9255 21.6022 75.9893 17.7308 74.1892C13.8595 72.3891 10.4261 69.7682 7.6691 66.5084C4.91207 63.2486 2.89734 59.4279 1.76474 55.3115C0.632133 51.1951 0.408773 46.8815 1.11016 42.6702C1.81154 38.4588 3.42087 34.4504 5.82647 30.9233C8.23207 27.3962 11.3763 24.4347 15.041 22.2444C18.7058 20.0541 22.8032 18.6874 27.049 18.2392C30.8066 17.8425 34.6008 18.1736 38.225 19.2094C38.0465 19.6651 37.8789 20.1259 37.7227 20.5916L39.1448 21.0686L39.6286 19.6488C39.1639 19.4905 38.6959 19.344 38.225 19.2094C40.3373 13.8201 43.9947 9.16075 48.7529 5.82634C53.9132 2.21003 60.0966 0.342514 66.396 0.497717C72.6955 0.652919 78.7794 2.82267 83.7554 6.68871C88.2742 10.1995 91.6633 14.9413 93.5267 20.3256C97.5885 18.6409 101.983 17.8835 106.389 18.1184C111.372 18.384 116.207 19.9106 120.44 22.5551C124.672 25.1995 128.164 28.8753 130.588 33.2378C133.012 37.6004 134.288 42.5069 134.298 47.4976L132.798 47.5005Z" fill="#3D3D3D"/>
<path fill-rule="evenodd" clip-rule="evenodd" d="M34.3472 73.9327C35.1756 73.9327 35.8472 74.6043 35.8472 75.4327V110.648C35.8472 111.476 35.1756 112.148 34.3472 112.148C33.5187 112.148 32.8472 111.476 32.8472 110.648V75.4327C32.8472 74.6043 33.5187 73.9327 34.3472 73.9327Z" fill="#3D3D3D"/>
<path fill-rule="evenodd" clip-rule="evenodd" d="M58.224 73.9327C59.0524 73.9327 59.724 74.6043 59.724 75.4327V132.584C59.724 133.413 59.0524 134.084 58.224 134.084C57.3956 134.084 56.724 133.413 56.724 132.584V75.4327C56.724 74.6043 57.3956 73.9327 58.224 73.9327Z" fill="#3D3D3D"/>
<path fill-rule="evenodd" clip-rule="evenodd" d="M82.5 74C83.3284 74 84 74.5624 84 75.256V104.744C84 105.438 83.3284 106 82.5 106C81.6716 106 81 105.438 81 104.744V75.256C81 74.5624 81.6716 74 82.5 74Z" fill="#3D3D3D"/>
<path fill-rule="evenodd" clip-rule="evenodd" d="M101.809 75.7472C102.637 75.7472 103.309 76.4188 103.309 77.2472V131.084H108.449C109.278 131.084 109.949 131.756 109.949 132.584C109.949 133.413 109.278 134.084 108.449 134.084H101.809C100.981 134.084 100.309 133.413 100.309 132.584V77.2472C100.309 76.4188 100.981 75.7472 101.809 75.7472Z" fill="#3D3D3D"/>
<path fill-rule="evenodd" clip-rule="evenodd" d="M26.0487 111.752C26.0487 110.924 26.7203 110.252 27.5487 110.252H34.3469C35.1754 110.252 35.8469 110.924 35.8469 111.752C35.8469 112.581 35.1754 113.252 34.3469 113.252H27.5487C26.7203 113.252 26.0487 112.581 26.0487 111.752Z" fill="#3D3D3D"/>
<path fill-rule="evenodd" clip-rule="evenodd" d="M56.724 132.584C56.724 131.756 57.3956 131.084 58.224 131.084H65.3538C66.1823 131.084 66.8538 131.756 66.8538 132.584C66.8538 133.413 66.1823 134.084 65.3538 134.084H58.224C57.3956 134.084 56.724 133.413 56.724 132.584Z" fill="#3D3D3D"/>
<circle cx="73.0337" cy="132.584" r="7.35393" stroke="#3D3D3D" stroke-width="3"/>
<circle cx="115.854" cy="132.584" r="7.35393" stroke="#3D3D3D" stroke-width="3"/>
<circle cx="82.9944" cy="111.556" r="6.24719" stroke="#3D3D3D" stroke-width="3"/>
<circle cx="19.9101" cy="110.449" r="7.35393" stroke="#3D3D3D" stroke-width="3"/>
</svg>
