<svg width="84" height="141" viewBox="0 0 84 141" fill="none" xmlns="http://www.w3.org/2000/svg">
<path fill-rule="evenodd" clip-rule="evenodd" d="M46.3471 52.692C47.1042 53.0282 47.4454 53.9146 47.1091 54.6717L36.6329 78.2609C36.2966 79.018 35.4103 79.3592 34.6531 79.023C33.896 78.6867 33.5548 77.8004 33.8911 77.0433L44.3674 53.454C44.7036 52.6969 45.59 52.3557 46.3471 52.692Z" fill="#3D3D3D"/>
<path fill-rule="evenodd" clip-rule="evenodd" d="M51.5153 54.0494C51.9548 53.3471 52.8804 53.1342 53.5826 53.5737L71.1779 64.5861C71.616 64.8603 71.8821 65.3407 71.8821 65.8576C71.8821 66.3744 71.616 66.8549 71.1779 67.1291L53.5826 78.1415C52.8804 78.581 51.9548 78.368 51.5153 77.6658C51.0758 76.9635 51.2888 76.038 51.991 75.5985L67.5547 65.8576L51.991 56.1167C51.2888 55.6772 51.0758 54.7516 51.5153 54.0494Z" fill="#3D3D3D"/>
<path fill-rule="evenodd" clip-rule="evenodd" d="M29.4848 54.0494C29.9243 54.7516 29.7113 55.6772 29.0091 56.1167L13.4454 65.8576L29.0091 75.5985C29.7113 76.038 29.9243 76.9635 29.4848 77.6658C29.0453 78.368 28.1197 78.581 27.4175 78.1415L9.82224 67.1291C9.38413 66.8549 9.11804 66.3744 9.11804 65.8576C9.11804 65.3407 9.38413 64.8603 9.82224 64.5861L27.4175 53.5737C28.1197 53.1342 29.0453 53.3471 29.4848 54.0494Z" fill="#3D3D3D"/>
<path fill-rule="evenodd" clip-rule="evenodd" d="M15.7541 3.35522C8.78425 3.35522 3.11597 9.04842 3.11597 16.0937V125.12C3.11597 132.165 8.78425 137.858 15.7541 137.858H67.4595C74.4294 137.858 80.0977 132.165 80.0977 125.12V16.0937C80.0977 9.04842 74.4294 3.35522 67.4595 3.35522H15.7541ZM0.115967 16.0937C0.115967 7.41159 7.10744 0.355225 15.7541 0.355225H67.4595C76.1062 0.355225 83.0977 7.41159 83.0977 16.0937V125.12C83.0977 133.802 76.1062 140.858 67.4595 140.858H15.7541C7.10744 140.858 0.115967 133.802 0.115967 125.12V16.0937Z" fill="#3D3D3D"/>
<path fill-rule="evenodd" clip-rule="evenodd" d="M0.115967 111.966C0.115967 111.138 0.78754 110.466 1.61597 110.466H81.5977C82.4261 110.466 83.0977 111.138 83.0977 111.966C83.0977 112.794 82.4261 113.466 81.5977 113.466H1.61597C0.78754 113.466 0.115967 112.794 0.115967 111.966Z" fill="#3D3D3D"/>
<path fill-rule="evenodd" clip-rule="evenodd" d="M39.7891 120.882C37.058 120.882 34.8259 123.114 34.8259 125.891C34.8259 128.667 37.058 130.9 39.7891 130.9C42.5202 130.9 44.7523 128.667 44.7523 125.891C44.7523 123.114 42.5202 120.882 39.7891 120.882ZM31.8259 125.891C31.8259 121.477 35.3812 117.882 39.7891 117.882C44.197 117.882 47.7523 121.477 47.7523 125.891C47.7523 130.304 44.197 133.9 39.7891 133.9C35.3812 133.9 31.8259 130.304 31.8259 125.891Z" fill="#3D3D3D"/>
<path fill-rule="evenodd" clip-rule="evenodd" d="M3.34753 14.4666C3.34753 13.6381 4.01911 12.9666 4.84753 12.9666H79.5779C80.4064 12.9666 81.0779 13.6381 81.0779 14.4666C81.0779 15.295 80.4064 15.9666 79.5779 15.9666H4.84753C4.01911 15.9666 3.34753 15.295 3.34753 14.4666Z" fill="#3D3D3D"/>
</svg>
