<svg width="1316" height="962" viewBox="0 0 1316 962" fill="none" xmlns="http://www.w3.org/2000/svg">
<circle cx="973.026" cy="214.027" r="125" transform="rotate(129.72 973.026 214.027)" fill="url(#paint0_linear)"/>
<ellipse cx="129.5" cy="774.647" rx="171.238" ry="169.107" transform="rotate(129.72 129.5 774.647)" fill="url(#paint1_linear)"/>
<circle cx="1205.49" cy="663.495" r="104.259" transform="rotate(-3.5387 1205.49 663.495)" fill="url(#paint2_linear)"/>
<circle cx="571.859" cy="478.859" r="125" transform="rotate(-84.268 571.859 478.859)" fill="url(#paint3_linear)"/>
<circle cx="354.98" cy="50.9802" r="37.3202" transform="rotate(-60 354.98 50.9802)" fill="url(#paint4_linear)"/>
<circle cx="913.981" cy="854.98" r="37.3202" transform="rotate(109.292 913.981 854.98)" fill="url(#paint5_linear)"/>
<defs>
<linearGradient id="paint0_linear" x1="973.026" y1="89.0265" x2="973.026" y2="339.027" gradientUnits="userSpaceOnUse">
<stop stop-color="white" stop-opacity="0.25"/>
<stop offset="0.572917" stop-color="#FFF2F2" stop-opacity="0"/>
</linearGradient>
<linearGradient id="paint1_linear" x1="129.5" y1="605.54" x2="129.5" y2="943.754" gradientUnits="userSpaceOnUse">
<stop stop-color="white" stop-opacity="0.31"/>
<stop offset="0.572917" stop-color="#FFF2F2" stop-opacity="0"/>
</linearGradient>
<linearGradient id="paint2_linear" x1="1205.5" y1="559.236" x2="1205.5" y2="767.753" gradientUnits="userSpaceOnUse">
<stop stop-color="white" stop-opacity="0.41"/>
<stop offset="0.572917" stop-color="#FFF2F2" stop-opacity="0"/>
</linearGradient>
<linearGradient id="paint3_linear" x1="571.859" y1="353.859" x2="571.859" y2="603.859" gradientUnits="userSpaceOnUse">
<stop stop-color="white" stop-opacity="0.23"/>
<stop offset="0.822917" stop-color="#FFF2F2" stop-opacity="0"/>
</linearGradient>
<linearGradient id="paint4_linear" x1="354.98" y1="13.66" x2="354.98" y2="88.3004" gradientUnits="userSpaceOnUse">
<stop stop-color="white" stop-opacity="0.17"/>
<stop offset="0.614583" stop-color="white" stop-opacity="0"/>
</linearGradient>
<linearGradient id="paint5_linear" x1="913.981" y1="817.66" x2="913.981" y2="892.301" gradientUnits="userSpaceOnUse">
<stop stop-color="white" stop-opacity="0.25"/>
<stop offset="0.614583" stop-color="white" stop-opacity="0"/>
</linearGradient>
</defs>
</svg>
