<svg width="205" height="79" viewBox="0 0 205 79" fill="none" xmlns="http://www.w3.org/2000/svg">
<g clip-path="url(#clip0)">
<path d="M65.6319 45.7219C64.9292 45.7691 64.2733 45.8162 63.7112 45.8162C61.8842 45.8162 60.5725 45.5805 59.6824 45.1563C58.8391 44.7321 58.2301 43.9779 57.9491 42.9409C57.668 41.9039 57.5274 40.2542 57.5274 38.0388C57.5274 35.8234 57.668 34.2208 57.9491 33.1366C58.2301 32.0996 58.7923 31.3455 59.6824 30.9212C60.5256 30.497 61.8842 30.2613 63.7112 30.2613C64.3202 30.2613 64.976 30.3085 65.6319 30.3556C66.2877 30.4499 66.8499 30.497 67.3183 30.6384V32.7124C66.1472 32.571 65.1634 32.4767 64.3202 32.4767C62.9148 32.4767 61.8842 32.571 61.3688 32.8067C60.8067 33.0423 60.4319 33.4666 60.2914 34.1736C60.104 34.8807 60.0103 36.1533 60.0103 37.9445C60.0103 39.7828 60.104 41.0083 60.2914 41.7154C60.4788 42.4224 60.8067 42.8938 61.3688 43.0823C61.931 43.318 62.9148 43.4123 64.3202 43.4123C65.4445 43.4123 66.4751 43.318 67.412 43.1766V45.2977C66.9436 45.5805 66.3346 45.6748 65.6319 45.7219Z" fill="#3D3D3D"/>
<path d="M73.1273 45.2034C72.2841 44.7792 71.7219 44.0722 71.4877 43.0823C71.2535 42.0925 71.1598 40.4427 71.1598 38.0859C71.1598 35.7291 71.2535 34.0793 71.4877 33.0895C71.7219 32.0996 72.2841 31.3926 73.1273 30.9684C73.9706 30.5441 75.4228 30.3556 77.4372 30.3556C79.4516 30.3556 80.9038 30.5441 81.7471 30.9684C82.5903 31.3926 83.1524 32.0996 83.3867 33.0895C83.6209 34.0793 83.7146 35.7762 83.7146 38.0859C83.7146 40.3956 83.6209 42.0453 83.3867 43.0823C83.1524 44.0722 82.5903 44.7792 81.7471 45.2034C80.9038 45.6277 79.4516 45.8162 77.4372 45.8162C75.4228 45.8162 74.0174 45.6277 73.1273 45.2034ZM80.1543 43.318C80.6227 43.1295 80.9038 42.7052 81.0444 41.9982C81.1849 41.2912 81.2317 40.0185 81.2317 38.0859C81.2317 36.1533 81.1849 34.8335 81.0444 34.1736C80.9038 33.4666 80.6227 33.0423 80.1543 32.8538C79.6858 32.6653 78.7957 32.571 77.4372 32.571C76.0786 32.571 75.1886 32.6653 74.7201 32.8538C74.2516 33.0423 73.9706 33.4666 73.83 34.1736C73.6895 34.8806 73.6426 36.1533 73.6426 38.0859C73.6426 40.0185 73.6895 41.3383 73.83 41.9982C73.9706 42.7052 74.2516 43.1295 74.7201 43.318C75.1886 43.5065 76.0786 43.6008 77.4372 43.6008C78.7957 43.6008 79.6858 43.5065 80.1543 43.318Z" fill="#3D3D3D"/>
<path d="M101.657 45.6277V34.5978H101.563L97.019 45.6748H95.2857L90.7415 34.5978H90.6479V45.6748H88.3524V30.5441H91.7253L96.1757 41.244H96.2694L100.72 30.5441H104.046V45.6748H101.657V45.6277Z" fill="#3D3D3D"/>
<path d="M112.759 45.6277L107.606 30.497H110.183L114.352 42.7524H114.446L118.615 30.497H121.098L115.992 45.6277H112.759Z" fill="#3D3D3D"/>
<path d="M133.747 45.6277L132.435 41.9982H126.017L124.705 45.6277H122.269L127.657 30.497H130.889L136.276 45.6277H133.747ZM129.249 33.0424H129.156L126.766 39.7828H131.685L129.249 33.0424Z" fill="#3D3D3D"/>
<path d="M149.393 45.6277L142.273 35.0221H142.179V45.6277H139.837V30.5441H142.413L149.3 40.7726H149.393V30.5441H151.736V45.6748H149.393V45.6277Z" fill="#3D3D3D"/>
<path d="M156.842 45.6277V30.5441H159.325V45.6748H156.842V45.6277Z" fill="#3D3D3D"/>
<path d="M164.431 45.6277V30.5441H166.914V43.3651H173.613V45.6748H164.431V45.6277Z" fill="#3D3D3D"/>
<path d="M177.314 45.6277V30.5441H179.797V43.3651H186.449V45.6748H177.314V45.6277Z" fill="#3D3D3D"/>
<path d="M200.128 45.6277L198.816 41.9982H192.445L191.133 45.6277H188.651L194.038 30.497H197.27L202.658 45.6277H200.128ZM195.678 33.0424H195.584L193.195 39.7828H198.114L195.678 33.0424Z" fill="#3D3D3D"/>
<path d="M39.6727 30.0122L38.2808 30.5724L41.0124 37.4436L42.4043 36.8834L39.6727 30.0122Z" fill="#3D3D3D"/>
<path d="M33.7102 14.2364L32.3183 14.7966L34.7889 21.0113L36.1808 20.4511L33.7102 14.2364Z" fill="#3D3D3D"/>
<path d="M23.0485 39.7828H15.7404V41.2912H23.0485V39.7828Z" fill="#3D3D3D"/>
<path d="M39.1637 39.7828H33.6358V41.2912H39.1637V39.7828Z" fill="#3D3D3D"/>
<path d="M28.4358 45.9105C31.3077 45.9105 33.6358 43.568 33.6358 40.6784C33.6358 37.7888 31.3077 35.4463 28.4358 35.4463C25.5639 35.4463 23.2358 37.7888 23.2358 40.6784C23.2358 43.568 25.5639 45.9105 28.4358 45.9105Z" fill="#FFD41F"/>
<path d="M28.4358 46.6647C25.1565 46.6647 22.4863 43.9779 22.4863 40.6784C22.4863 37.3789 25.1565 34.6921 28.4358 34.6921C31.715 34.6921 34.3853 37.3789 34.3853 40.6784C34.3853 43.9779 31.715 46.6647 28.4358 46.6647ZM28.4358 36.2005C25.9998 36.2005 23.9854 38.2273 23.9854 40.6784C23.9854 43.1295 25.9998 45.1563 28.4358 45.1563C30.8718 45.1563 32.8862 43.1295 32.8862 40.6784C32.8862 38.2273 30.9187 36.2005 28.4358 36.2005Z" fill="#3D3D3D"/>
<path d="M9.46299 46.8532C12.8523 46.8532 15.5999 44.0887 15.5999 40.6784C15.5999 37.2681 12.8523 34.5036 9.46299 34.5036C6.07369 34.5036 3.32611 37.2681 3.32611 40.6784C3.32611 44.0887 6.07369 46.8532 9.46299 46.8532Z" fill="#FFD41F"/>
<path d="M9.463 47.6545C5.66843 47.6545 2.57657 44.5436 2.57657 40.7255C2.57657 36.9075 5.66843 33.7965 9.463 33.7965C13.2576 33.7965 16.3494 36.9075 16.3494 40.7255C16.3494 44.5436 13.2576 47.6545 9.463 47.6545ZM9.463 35.2578C6.46482 35.2578 4.02881 37.7088 4.02881 40.7255C4.02881 43.7422 6.46482 46.1933 9.463 46.1933C12.4612 46.1933 14.8972 43.7422 14.8972 40.7255C14.8972 37.7088 12.4612 35.2578 9.463 35.2578Z" fill="#3D3D3D"/>
<path d="M42.5834 43.9779C44.498 43.9779 46.0501 42.4163 46.0501 40.4899C46.0501 38.5635 44.498 37.0018 42.5834 37.0018C40.6689 37.0018 39.1168 38.5635 39.1168 40.4899C39.1168 42.4163 40.6689 43.9779 42.5834 43.9779Z" fill="#FFD41F"/>
<path d="M42.5834 44.7321C42.0681 44.7321 41.506 44.6378 41.0375 44.4493C40.0069 44.0251 39.1636 43.2237 38.742 42.1868C37.8519 40.0656 38.8357 37.5674 40.9438 36.6247C41.9744 36.2005 43.0987 36.1533 44.1762 36.5776C45.2068 37.0018 46.0501 37.8031 46.4717 38.8401C46.8933 39.8771 46.9401 41.0084 46.5185 42.0925C46.0969 43.1766 45.3005 43.9779 44.2699 44.4021C43.7077 44.5907 43.1456 44.7321 42.5834 44.7321ZM42.5834 37.756C42.2087 37.756 41.8339 37.8502 41.506 37.9916C40.1474 38.6044 39.4916 40.207 40.0537 41.574C40.3348 42.2339 40.8501 42.7524 41.5528 43.0352C42.2087 43.318 42.9582 43.318 43.614 42.9881C44.2699 42.7052 44.7852 42.1868 45.0663 41.4797C45.3474 40.8198 45.3474 40.0656 45.0194 39.4057C44.7384 38.7458 44.223 38.2273 43.5204 37.9445C43.2861 37.8031 42.9582 37.756 42.5834 37.756Z" fill="#3D3D3D"/>
<path d="M23.3764 58.0716C25.291 58.0716 26.843 56.5099 26.843 54.5835C26.843 52.6571 25.291 51.0955 23.3764 51.0955C21.4618 51.0955 19.9098 52.6571 19.9098 54.5835C19.9098 56.5099 21.4618 58.0716 23.3764 58.0716Z" fill="#FFD41F"/>
<path d="M23.3764 58.7786C21.7368 58.7786 20.1908 57.8359 19.4881 56.2333C19.0665 55.1963 19.0197 54.065 19.4413 52.9809C19.8629 51.9439 20.6593 51.0955 21.6899 50.6712C22.7205 50.247 23.8449 50.1999 24.9223 50.6241C25.9529 51.0483 26.7962 51.8496 27.2178 52.8866C28.1079 55.0078 27.1241 57.506 25.016 58.4487C24.4539 58.6844 23.8917 58.7786 23.3764 58.7786ZM23.3295 51.8496C22.9548 51.8496 22.6268 51.9439 22.2521 52.0853C21.5962 52.3681 21.0809 52.8866 20.7998 53.5937C20.5188 54.2536 20.5188 55.0078 20.8467 55.6677C21.4557 57.0346 23.0485 57.6945 24.407 57.1289C25.7656 56.5161 26.4214 54.9135 25.8592 53.5465C25.4376 52.4624 24.407 51.8496 23.3295 51.8496Z" fill="#3D3D3D"/>
<path d="M37.0087 30.7327C39.8806 30.7327 42.2087 28.3902 42.2087 25.5006C42.2087 22.611 39.8806 20.2685 37.0087 20.2685C34.1368 20.2685 31.8087 22.611 31.8087 25.5006C31.8087 28.3902 34.1368 30.7327 37.0087 30.7327Z" fill="#FFD41F"/>
<path d="M37.0087 31.4869C36.2591 31.4869 35.5096 31.3455 34.8069 31.0627C33.3547 30.4499 32.1835 29.3186 31.5745 27.8574C30.9655 26.3962 30.9187 24.7464 31.5277 23.2852C32.1367 21.824 33.261 20.6456 34.7132 20.0328C36.1655 19.4201 37.8051 19.3729 39.2573 19.9857C40.7096 20.5985 41.8807 21.7297 42.4897 23.1909C43.0987 24.6522 43.1456 26.3019 42.5366 27.7631C41.9276 29.2244 40.8033 30.4028 39.351 31.0155C38.6015 31.2983 37.8051 31.4869 37.0087 31.4869ZM37.0087 21.0227C36.3997 21.0227 35.8375 21.1641 35.2754 21.3998C34.1979 21.8711 33.3547 22.7196 32.8862 23.8509C32.4646 24.9821 32.4646 26.1605 32.9331 27.2918C33.9168 29.5543 36.5402 30.6384 38.7889 29.6486C39.8663 29.1772 40.7096 28.3288 41.178 27.1975C41.5996 26.0662 41.5996 24.8878 41.1312 23.7566C40.6627 22.6725 39.8195 21.824 38.6952 21.3526C38.133 21.117 37.5708 21.0227 37.0087 21.0227Z" fill="#3D3D3D"/>
<path d="M30.0754 15.2721C33.4647 15.2721 36.2123 12.5075 36.2123 9.09728C36.2123 5.68702 33.4647 2.92245 30.0754 2.92245C26.6861 2.92245 23.9385 5.68702 23.9385 9.09728C23.9385 12.5075 26.6861 15.2721 30.0754 15.2721Z" fill="#FFD41F"/>
<path d="M30.0754 16.0263C27.4052 16.0263 24.8286 14.4236 23.7512 11.784C22.2521 8.29595 23.8917 4.19511 27.3583 2.68676C29.0448 1.97972 30.9187 1.93258 32.652 2.63963C34.3385 3.34667 35.697 4.66647 36.3997 6.36337C37.8988 9.89857 36.2592 13.9523 32.7457 15.4606C31.9024 15.8377 30.9655 16.0263 30.0754 16.0263ZM30.0754 3.62948C29.3727 3.62948 28.6232 3.77089 27.9673 4.05371C26.6556 4.61934 25.625 5.70347 25.0629 7.02328C24.5007 8.39022 24.5476 9.85144 25.1097 11.1712C26.2809 13.9523 29.4664 15.2249 32.2304 14.0465C33.5421 13.4809 34.5727 12.3968 35.1348 11.077C35.697 9.71003 35.6502 8.24881 35.088 6.929C34.5258 5.6092 33.4484 4.5722 32.1367 4.00657C31.434 3.77089 30.7313 3.62948 30.0754 3.62948Z" fill="#3D3D3D"/>
<path d="M23.3764 29.6014C25.291 29.6014 26.843 28.0398 26.843 26.1134C26.843 24.187 25.291 22.6253 23.3764 22.6253C21.4618 22.6253 19.9098 24.187 19.9098 26.1134C19.9098 28.0398 21.4618 29.6014 23.3764 29.6014Z" fill="#FFD41F"/>
<path d="M23.3296 30.3085C22.7674 30.3085 22.2052 30.2142 21.6899 29.9785C20.6593 29.5543 19.8629 28.7058 19.4413 27.6688C19.0197 26.6319 19.0197 25.4535 19.4881 24.4165C20.3782 22.2953 22.8611 21.2583 25.016 22.2011C27.1241 23.0967 28.1547 25.5949 27.2178 27.7631C26.5151 29.3657 24.9692 30.3085 23.3296 30.3085ZM23.3764 23.3795C22.2989 23.3795 21.3152 23.9922 20.8935 25.0292C20.6125 25.6891 20.6125 26.4433 20.8467 27.1032C21.1278 27.7631 21.6431 28.3288 22.2989 28.6116C23.6575 29.2243 25.2971 28.5644 25.8593 27.1975C26.4683 25.8305 25.8124 24.1808 24.407 23.6151C24.0791 23.4266 23.7043 23.3795 23.3764 23.3795Z" fill="#3D3D3D"/>
<path d="M41.0354 43.6298L38.3031 50.5003L39.6948 51.0607L42.4272 44.1902L41.0354 43.6298Z" fill="#3D3D3D"/>
<path d="M34.7785 60.0509L32.3072 66.265L33.6989 66.8253L36.1702 60.6113L34.7785 60.0509Z" fill="#3D3D3D"/>
<path d="M37.0087 60.8055C39.8806 60.8055 42.2087 58.463 42.2087 55.5734C42.2087 52.6838 39.8806 50.3413 37.0087 50.3413C34.1368 50.3413 31.8087 52.6838 31.8087 55.5734C31.8087 58.463 34.1368 60.8055 37.0087 60.8055Z" fill="#FFD41F"/>
<path d="M37.0087 61.5597C36.2123 61.5597 35.4159 61.4183 34.6664 61.0883C31.6682 59.8156 30.2628 56.2804 31.5277 53.2637C32.1367 51.8025 33.3078 50.6712 34.7601 50.0585C36.2123 49.4457 37.8519 49.4928 39.3042 50.1056C40.7564 50.7184 41.8807 51.8968 42.4897 53.358C43.0987 54.8192 43.0519 56.469 42.4429 57.9302C41.8339 59.3914 40.6627 60.5227 39.2105 61.1354C38.5078 61.3711 37.7582 61.5597 37.0087 61.5597ZM37.0556 51.0955C35.3222 51.0955 33.6826 52.1325 32.9331 53.8294C31.9493 56.0919 33.0268 58.7315 35.2754 59.7214C36.3529 60.1927 37.5709 60.1927 38.6952 59.7685C39.8195 59.3443 40.6627 58.4487 41.1312 57.3646C41.5997 56.2804 41.5997 55.0549 41.178 53.9236C40.7564 52.7924 39.8663 51.9439 38.7889 51.4725C38.2267 51.1897 37.6177 51.0955 37.0556 51.0955Z" fill="#3D3D3D"/>
<path d="M30.0754 78.1516C33.4648 78.1516 36.2123 75.387 36.2123 71.9767C36.2123 68.5665 33.4648 65.8019 30.0754 65.8019C26.6861 65.8019 23.9386 68.5665 23.9386 71.9767C23.9386 75.387 26.6861 78.1516 30.0754 78.1516Z" fill="#FFD41F"/>
<path d="M30.0754 78.9057C29.1385 78.9057 28.2484 78.7172 27.3584 78.3401C23.8449 76.8317 22.2052 72.778 23.7043 69.2428C25.2034 65.7076 29.2322 64.0579 32.7457 65.5662C34.4322 66.2733 35.7439 67.6402 36.4466 69.3371C37.1493 71.034 37.1024 72.9194 36.3997 74.6635C35.697 76.3604 34.3385 77.6802 32.652 78.3872C31.8088 78.7643 30.9187 78.9057 30.0754 78.9057ZM30.0754 66.5561C27.9674 66.5561 25.953 67.7816 25.0629 69.8556C23.8917 72.6366 25.1566 75.8419 27.9205 77.0203C29.2322 77.5859 30.7313 77.5859 32.043 77.0674C33.4015 76.5018 34.4322 75.4648 34.9943 74.145C35.5565 72.8252 35.5565 71.3168 35.0412 69.997C34.479 68.6301 33.4484 67.5931 32.1367 67.0274C31.5277 66.6975 30.7781 66.5561 30.0754 66.5561Z" fill="#3D3D3D"/>
</g>
<defs>
<clipPath id="clip0">
<rect width="205" height="79" fill="white"/>
</clipPath>
</defs>
</svg>
