<svg width="127" height="100" viewBox="0 0 127 100" fill="none" xmlns="http://www.w3.org/2000/svg">
<path fill-rule="evenodd" clip-rule="evenodd" d="M17.4545 0.0810735L17.4598 0.0810547L109.755 0.0810641C111.958 0.0888531 114.137 0.530962 116.168 1.38208C118.199 2.2332 120.042 3.47662 121.591 5.04111C123.141 6.60561 124.367 8.46045 125.199 10.4994C126.03 12.5368 126.452 14.718 126.439 16.9183V77.8757C126.452 80.076 126.03 82.2572 125.199 84.2946C124.367 86.3335 123.141 88.1884 121.591 89.7529C120.042 91.3174 118.199 92.5608 116.168 93.4119C114.137 94.263 111.958 94.7051 109.755 94.7129L109.75 94.7129H91.2776C90.4492 94.7129 89.7776 94.0413 89.7776 93.2129C89.7776 92.3845 90.4492 91.7129 91.2776 91.7129L109.745 91.7129C109.746 91.7129 109.746 91.7129 109.747 91.7129C111.554 91.7063 113.342 91.3434 115.008 90.645C116.675 89.9464 118.188 88.9258 119.46 87.6416C120.732 86.3574 121.739 84.8349 122.421 83.1613C123.104 81.4876 123.45 79.6957 123.439 77.8882L123.439 77.8793V16.9147L123.439 16.9058C123.45 15.0982 123.104 13.3063 122.421 11.6327C121.739 9.95906 120.732 8.43655 119.46 7.15238C118.188 5.8682 116.675 4.84758 115.008 4.14896C113.342 3.45067 111.554 3.08779 109.747 3.08106H17.4625C15.6558 3.08779 13.8682 3.45067 12.2019 4.14896C10.5348 4.84758 9.02187 5.8682 7.74978 7.15238C6.47769 8.43656 5.47141 9.95906 4.78859 11.6327C4.10576 13.3063 3.7598 15.0982 3.7705 16.9058L3.77056 16.9147L3.77053 77.8793L3.77052 77.8838C3.75972 81.5273 5.19622 85.0261 7.76423 87.6109C10.3317 90.1952 13.8202 91.6543 17.463 91.6678C17.4637 91.6678 17.4644 91.6678 17.4651 91.6678L34.3719 91.6678C35.2003 91.6678 35.8719 92.3394 35.8719 93.1678C35.8719 93.9962 35.2003 94.6678 34.3719 94.6678H17.4598L17.4545 94.6678C13.0156 94.6521 8.76459 92.8743 5.63602 89.7253C2.50799 86.5768 0.757983 82.3153 0.770531 77.8772V16.919C0.758094 14.7184 1.17957 12.537 2.01087 10.4994C2.84275 8.46045 4.06868 6.60561 5.61845 5.04111C7.16822 3.47661 9.01139 2.2332 11.0424 1.38208C13.0734 0.530962 15.2524 0.0888531 17.4545 0.0810735Z" fill="#3D3D3D"/>
<path fill-rule="evenodd" clip-rule="evenodd" d="M0.770569 28.3513C0.770569 27.5229 1.44214 26.8513 2.27057 26.8513H123.172C124 26.8513 124.672 27.5229 124.672 28.3513C124.672 29.1797 124 29.8513 123.172 29.8513H2.27057C1.44214 29.8513 0.770569 29.1797 0.770569 28.3513Z" fill="#3D3D3D"/>
<path fill-rule="evenodd" clip-rule="evenodd" d="M14.9767 16.0756C14.9767 15.2471 15.6483 14.5756 16.4767 14.5756H18.407C19.2354 14.5756 19.907 15.2471 19.907 16.0756C19.907 16.904 19.2354 17.5756 18.407 17.5756H16.4767C15.6483 17.5756 14.9767 16.904 14.9767 16.0756Z" fill="#3D3D3D"/>
<path fill-rule="evenodd" clip-rule="evenodd" d="M29.8773 16.0756C29.8773 15.2471 30.5489 14.5756 31.3773 14.5756H33.3076C34.136 14.5756 34.8076 15.2471 34.8076 16.0756C34.8076 16.904 34.136 17.5756 33.3076 17.5756H31.3773C30.5489 17.5756 29.8773 16.904 29.8773 16.0756Z" fill="#3D3D3D"/>
<path fill-rule="evenodd" clip-rule="evenodd" d="M44.769 16.0756C44.769 15.2471 45.4406 14.5756 46.269 14.5756H48.1993C49.0277 14.5756 49.6993 15.2471 49.6993 16.0756C49.6993 16.904 49.0277 17.5756 48.1993 17.5756H46.269C45.4406 17.5756 44.769 16.904 44.769 16.0756Z" fill="#3D3D3D"/>
<path d="M87.0563 60.6063L84.3504 55.9251C83.8584 55.0799 83.0517 54.4641 82.1068 54.2122C81.1619 53.9603 80.1557 54.093 79.3083 54.5811L74.4286 57.3682C73.868 57.6898 73.233 57.8589 72.5867 57.8585C71.9405 57.8582 71.3056 57.6886 70.7453 57.3665C70.185 57.0443 69.719 56.581 69.3935 56.0227C69.0681 55.4644 68.8946 54.8305 68.8905 54.1843V48.6191C68.8893 48.1358 68.7929 47.6575 68.6069 47.2114C68.4209 46.7654 68.1488 46.3604 67.8062 46.0195C67.4637 45.6786 67.0573 45.4085 66.6104 45.2247C66.1634 45.0408 65.6846 44.9468 65.2014 44.948H59.7895C59.3062 44.9468 58.8275 45.0408 58.3805 45.2247C57.9336 45.4085 57.5272 45.6786 57.1847 46.0195C56.8421 46.3604 56.57 46.7654 56.384 47.2114C56.198 47.6575 56.1016 48.1358 56.1004 48.6191V54.1843C56.0963 54.8305 55.9228 55.4644 55.5974 56.0227C55.2719 56.581 54.8059 57.0443 54.2456 57.3665C53.6853 57.6886 53.0504 57.8582 52.4042 57.8585C51.7579 57.8589 51.1229 57.6898 50.5623 57.3682L45.7187 54.5811C44.8713 54.093 43.8651 53.9603 42.9202 54.2122C41.9753 54.4641 41.1686 55.0799 40.6766 55.9251L37.9707 60.6063C37.4761 61.4413 37.3331 62.4385 37.5733 63.3789C37.8134 64.3192 38.417 65.1258 39.2515 65.6213L44.1041 68.4084C44.6541 68.7317 45.11 69.1931 45.4268 69.7468C45.7436 70.3005 45.9103 70.9274 45.9103 71.5653C45.9103 72.2033 45.7436 72.8302 45.4268 73.3839C45.11 73.9376 44.6541 74.399 44.1041 74.7223L39.2515 77.5545C38.8331 77.7946 38.4662 78.1151 38.172 78.4975C37.8778 78.8799 37.6621 79.3166 37.5372 79.7826C37.4123 80.2487 37.3807 80.7348 37.4443 81.213C37.5078 81.6913 37.6653 82.1523 37.9075 82.5695L40.6135 87.2507C41.1071 88.0941 41.9138 88.7084 42.858 88.9601C43.8022 89.2117 44.8076 89.0804 45.6555 88.5947L50.4991 85.8076C51.0586 85.4835 51.6934 85.3122 52.34 85.3107C52.9865 85.3093 53.6221 85.4778 54.183 85.7993C54.7439 86.1209 55.2105 86.5842 55.5359 87.1429C55.8614 87.7016 56.0343 88.336 56.0373 88.9825V94.5568C56.0385 95.04 56.1348 95.5183 56.3209 95.9644C56.5069 96.4104 56.779 96.8154 57.1215 97.1563C57.4641 97.4972 57.8704 97.7673 58.3174 97.9511C58.7643 98.135 59.2431 98.229 59.7264 98.2278H65.1382C65.6215 98.229 66.1003 98.135 66.5472 97.9511C66.9942 97.7673 67.4005 97.4972 67.7431 97.1563C68.0856 96.8154 68.3577 96.4104 68.5437 95.9644C68.7298 95.5183 68.8261 95.04 68.8273 94.5568V88.9825C68.8237 88.3266 68.9951 87.6816 69.3238 87.1139C69.6525 86.5462 70.1265 86.0765 70.6972 85.753C71.2679 85.4295 71.9144 85.2641 72.5703 85.2737C73.2262 85.2833 73.8677 85.4676 74.4286 85.8076L79.2722 88.5947C79.6926 88.8416 80.1575 89.0032 80.6404 89.0701C81.1233 89.1371 81.6146 89.1082 82.0863 88.9851C82.558 88.8619 83.0008 88.6469 83.3893 88.3524C83.7778 88.0579 84.1044 87.6897 84.3504 87.2688L87.0563 82.5875C87.2986 82.1703 87.456 81.7093 87.5196 81.2311C87.5831 80.7528 87.5516 80.2667 87.4267 79.8007C87.3018 79.3347 87.086 78.8979 86.7918 78.5155C86.4976 78.1332 86.1308 77.8127 85.7123 77.5725L80.8326 74.7674C80.2849 74.4423 79.8312 73.9803 79.5161 73.4268C79.2009 72.8733 79.0352 72.2474 79.0352 71.6105C79.0352 70.9735 79.2009 70.3476 79.5161 69.7941C79.8312 69.2406 80.2849 68.7786 80.8326 68.4535L85.6853 65.6213C86.106 65.3834 86.4754 65.0646 86.7723 64.6833C87.0692 64.3019 87.2877 63.8655 87.4152 63.3993C87.5426 62.9331 87.5765 62.4463 87.5149 61.967C87.4533 61.4876 87.2974 61.0252 87.0563 60.6063Z" stroke="#3D3D3D" stroke-width="3" stroke-linecap="round" stroke-linejoin="round"/>
<path fill-rule="evenodd" clip-rule="evenodd" d="M62.4865 62.7737C57.59 62.7737 53.6318 66.724 53.6318 71.5833C53.6318 76.4425 57.59 80.3929 62.4865 80.3929C67.383 80.3929 71.3412 76.4425 71.3412 71.5833C71.3412 66.724 67.383 62.7737 62.4865 62.7737ZM50.6318 71.5833C50.6318 65.0549 55.9455 59.7737 62.4865 59.7737C69.0275 59.7737 74.3412 65.0549 74.3412 71.5833C74.3412 78.1117 69.0275 83.3929 62.4865 83.3929C55.9455 83.3929 50.6318 78.1117 50.6318 71.5833Z" fill="#3D3D3D"/>
</svg>
