<svg width="36" height="35" viewBox="0 0 36 35" fill="none" xmlns="http://www.w3.org/2000/svg">
<path d="M25.2 3.5H10.8C6.84034 3.5 3.59998 6.64895 3.59998 10.5V24.5C3.59998 28.3496 6.84034 31.5 10.8 31.5H25.2C29.1596 31.5 32.4 28.3496 32.4 24.5V10.5C32.4 6.64895 29.1596 3.5 25.2 3.5ZM18 23.3331C14.6858 23.3331 11.9999 20.7207 11.9999 17.5C11.9999 14.2779 14.6858 11.6665 18 11.6665C21.3127 11.6665 24.0001 14.2779 24.0001 17.5C24.0001 20.7207 21.3127 23.3331 18 23.3331ZM25.8001 11.6665C24.8051 11.6665 24.0001 10.8829 24.0001 9.91655C24.0001 8.9502 24.8051 8.16655 25.8001 8.16655C26.7951 8.16655 27.6001 8.9502 27.6001 9.91655C27.6001 10.8829 26.7951 11.6665 25.8001 11.6665Z" fill="#1E1E1E"/>
</svg>
