<svg width="238" height="108" viewBox="0 0 238 108" fill="none" xmlns="http://www.w3.org/2000/svg">
<path d="M132.912 54.7748L122.459 58.9575L123.296 61.0481L133.748 56.8654L132.912 54.7748Z" fill="#3D3D3D"/>
<path d="M156.937 45.5793L147.504 49.354L148.34 51.4446L157.774 47.6699L156.937 45.5793Z" fill="#3D3D3D"/>
<path d="M118.793 20.2117H116.541V31.4158H118.793V20.2117Z" fill="#3D3D3D"/>
<path d="M118.793 47.6177H116.541V56.1307H118.793V47.6177Z" fill="#3D3D3D"/>
<path d="M117.476 48.7711C112.479 48.7711 108.359 44.7069 108.359 39.654C108.359 34.6011 112.424 30.5369 117.476 30.5369C122.529 30.5369 126.594 34.6011 126.594 39.654C126.594 44.7069 122.474 48.7711 117.476 48.7711ZM117.476 32.8436C113.687 32.8436 110.666 35.9193 110.666 39.654C110.666 43.3887 113.742 46.4644 117.476 46.4644C121.266 46.4644 124.287 43.3887 124.287 39.654C124.287 35.9193 121.211 32.8436 117.476 32.8436Z" fill="#3D3D3D"/>
<path d="M117.479 21.1451C111.657 21.1451 106.879 16.4218 106.879 10.5451C106.879 4.66841 111.657 0 117.479 0C123.301 0 128.079 4.72333 128.079 10.6C128.079 16.4767 123.301 21.1451 117.479 21.1451ZM117.479 2.25182C112.92 2.25182 109.186 5.98654 109.186 10.5451C109.186 15.1037 112.92 18.8384 117.479 18.8384C122.037 18.8384 125.772 15.1586 125.772 10.6C125.772 6.04147 122.037 2.25182 117.479 2.25182Z" fill="#3D3D3D"/>
<path d="M117.809 67.8291C116.986 67.8291 116.217 67.6644 115.393 67.3898C113.8 66.7307 112.537 65.5224 111.878 63.9296C110.505 60.6892 111.988 56.8447 115.283 55.4716C116.876 54.8125 118.633 54.7576 120.226 55.4167C121.819 56.0757 123.082 57.284 123.741 58.8768C125.114 62.1172 123.631 65.9618 120.336 67.3348C119.512 67.6644 118.633 67.8291 117.809 67.8291ZM117.809 57.2291C117.26 57.2291 116.711 57.339 116.162 57.5586C114.02 58.4923 113.086 60.9089 113.965 63.0509C114.404 64.0944 115.228 64.8633 116.272 65.3027C117.315 65.7421 118.469 65.6872 119.457 65.2478C121.599 64.3141 122.533 61.8975 121.654 59.7555C121.215 58.712 120.391 57.9431 119.347 57.5037C118.853 57.339 118.304 57.2291 117.809 57.2291Z" fill="#3D3D3D"/>
<path d="M96.3331 38.3357C93.8067 38.3357 91.4451 36.8528 90.4015 34.4362C89.7425 32.8435 89.6875 31.086 90.3466 29.4932C91.0057 27.9005 92.214 26.6372 93.8067 25.9782C97.0471 24.6051 100.892 26.088 102.265 29.3834C102.924 30.9761 102.979 32.7336 102.32 34.3264C101.661 35.9191 100.452 37.1823 98.8596 37.8414C98.0357 38.116 97.157 38.3357 96.3331 38.3357ZM96.3331 27.6808C95.7839 27.6808 95.2347 27.7906 94.6855 28.0103C93.6419 28.4497 92.873 29.2735 92.4337 30.317C91.9943 31.3606 92.0492 32.5139 92.4886 33.5025C93.4223 35.6445 95.8388 36.5782 97.9808 35.6994C99.0243 35.2601 99.7933 34.4362 100.233 33.3927C100.672 32.3492 100.617 31.1958 100.178 30.2072C99.4637 28.6694 97.9259 27.6808 96.3331 27.6808Z" fill="#3D3D3D"/>
<path d="M140.657 61.9517C137.142 61.9517 133.737 59.8647 132.254 56.4045C130.277 51.7911 132.419 46.4636 137.032 44.4864C139.284 43.5527 141.756 43.4978 144.007 44.4315C146.259 45.3651 148.017 47.0677 149.005 49.3196C150.983 53.933 148.841 59.2605 144.227 61.2377C143.019 61.6771 141.865 61.9517 140.657 61.9517ZM140.657 46.0242C139.723 46.0242 138.845 46.189 137.966 46.5734C134.506 48.0563 132.913 52.0657 134.341 55.5258C135.824 58.9859 139.833 60.6336 143.293 59.1507C146.753 57.6678 148.346 53.6584 146.918 50.1983C146.204 48.4957 144.886 47.2325 143.184 46.5185C142.36 46.189 141.481 46.0242 140.657 46.0242Z" fill="#3D3D3D"/>
<path d="M165.645 52.7254C164.327 52.7254 162.954 52.4508 161.691 51.9565C159.054 50.9129 157.022 48.8808 155.924 46.2995C154.825 43.7181 154.77 40.8072 155.814 38.2259C156.857 35.5896 158.89 33.5575 161.471 32.459C166.853 30.1523 173.06 32.6787 175.366 38.0611C177.673 43.4435 175.147 49.6497 169.764 51.9565C168.501 52.4508 167.073 52.7254 165.645 52.7254ZM165.645 33.887C164.547 33.887 163.448 34.1067 162.405 34.5461C160.373 35.4248 158.78 37.0176 157.956 39.1046C157.132 41.1368 157.132 43.4435 158.011 45.4756C158.89 47.5078 160.482 49.1005 162.569 49.9243C164.602 50.7482 166.908 50.7482 168.94 49.8694C173.169 48.057 175.147 43.1689 173.334 38.9948C171.961 35.7544 168.885 33.887 165.645 33.887Z" fill="#3D3D3D"/>
<path d="M139.72 38.336C138.896 38.336 138.017 38.1712 137.193 37.8417C135.601 37.1826 134.392 35.9194 133.733 34.3266C133.074 32.7339 133.129 30.9764 133.788 29.3836C134.447 27.7909 135.711 26.5826 137.303 25.9235C138.896 25.2644 140.654 25.3194 142.246 25.9784C143.839 26.6375 145.047 27.9007 145.706 29.4935C146.365 31.0862 146.311 32.8437 145.651 34.4365C144.608 36.8531 142.191 38.336 139.72 38.336ZM139.72 27.681C139.171 27.681 138.676 27.7909 138.182 27.9556C137.139 28.395 136.315 29.1639 135.875 30.2075C135.436 31.251 135.436 32.3494 135.82 33.393C136.26 34.4365 137.029 35.2603 138.072 35.6997C140.159 36.6334 142.631 35.6448 143.564 33.5028C144.004 32.4593 144.004 31.3608 143.619 30.3173C143.18 29.2738 142.411 28.4499 141.368 28.0106C140.818 27.7909 140.269 27.681 139.72 27.681Z" fill="#3D3D3D"/>
<path d="M102.508 54.8101L101.672 56.9009L112.126 61.0825L112.962 58.9917L102.508 54.8101Z" fill="#3D3D3D"/>
<path d="M78.4789 45.6116L77.6426 47.7024L87.0767 51.4761L87.9131 49.3852L78.4789 45.6116Z" fill="#3D3D3D"/>
<path d="M94.7975 61.9525C93.5892 61.9525 92.3809 61.7328 91.2275 61.2385C86.6141 59.2613 84.4721 53.9338 86.4493 49.3203C88.4265 44.7068 93.754 42.5648 98.3675 44.5421C102.981 46.5193 105.123 51.8467 103.146 56.4602C101.718 59.8654 98.3125 61.9525 94.7975 61.9525ZM92.1063 59.0965C95.5664 60.5794 99.5757 58.9317 101.059 55.4716C102.542 52.0115 100.894 48.0022 97.4338 46.5193C93.9737 45.0364 89.9643 46.684 88.4814 50.1441C87.0534 53.6043 88.6462 57.6136 92.1063 59.0965Z" fill="#3D3D3D"/>
<path d="M69.8048 52.7254C68.3768 52.7254 67.0037 52.4507 65.6856 51.8466C60.3032 49.5399 57.8317 43.3336 60.0835 37.9512C62.3903 32.5688 68.5965 30.0973 73.9789 32.3491C76.5602 33.4476 78.5924 35.5346 79.6359 38.116C80.6794 40.7523 80.6794 43.6082 79.5261 46.1896C78.4276 48.7709 76.3406 50.8031 73.7592 51.8466C72.4411 52.5057 71.1229 52.7254 69.8048 52.7254ZM66.5094 49.8145C68.5416 50.6932 70.7934 50.6932 72.8804 49.8694C74.9126 49.0456 76.5602 47.4528 77.439 45.4207C78.3178 43.3885 78.3178 41.1367 77.4939 39.0497C76.6701 37.0175 75.0773 35.3699 73.0452 34.4911C68.8162 32.6787 63.9281 34.6559 62.1706 38.8849C60.3581 43.1139 62.3353 48.002 66.5094 49.8145Z" fill="#3D3D3D"/>
<path d="M13.2912 107.264C12.1379 107.374 11.0943 107.429 10.1057 107.429C7.13991 107.429 4.94302 107.099 3.51503 106.385C2.08705 105.671 1.15337 104.463 0.713991 102.76C0.21969 101.058 0 98.4213 0 94.7965C0 91.2265 0.21969 88.5902 0.713991 86.8327C1.20829 85.1301 2.14197 83.9218 3.51503 83.2078C4.94302 82.4938 7.13991 82.1643 10.1057 82.1643C11.0943 82.1643 12.1379 82.2192 13.2912 82.3291C14.3897 82.4389 15.3234 82.6037 16.0373 82.7684V86.1736C14.1151 85.9539 12.5223 85.7892 11.1493 85.7892C8.78759 85.7892 7.19484 85.9539 6.26116 86.3384C5.32747 86.7229 4.77825 87.4369 4.44872 88.5902C4.1741 89.7436 4.00934 91.7757 4.00934 94.7415C4.00934 97.7073 4.1741 99.7395 4.44872 100.893C4.72333 102.046 5.32747 102.815 6.26116 103.145C7.19484 103.529 8.78759 103.694 11.1493 103.694C13.0166 103.694 14.6643 103.584 16.2021 103.309V106.77C15.3783 107.044 14.4446 107.154 13.2912 107.264Z" fill="#3D3D3D"/>
<path d="M25.5393 106.384C24.1662 105.725 23.2325 104.572 22.8481 102.924C22.4636 101.277 22.2988 98.5854 22.2988 94.7957C22.2988 91.0061 22.4636 88.3149 22.8481 86.6672C23.2325 85.0195 24.1113 83.9211 25.5393 83.2071C26.9123 82.548 29.274 82.1636 32.5693 82.1636C35.8647 82.1636 38.2263 82.4931 39.5994 83.2071C41.0274 83.8662 41.9061 85.0195 42.2906 86.6672C42.675 88.3149 42.8398 91.0061 42.8398 94.7957C42.8398 98.5854 42.675 101.277 42.2906 102.924C41.9061 104.572 41.0274 105.725 39.5994 106.384C38.1714 107.043 35.8647 107.428 32.5693 107.428C29.274 107.373 26.9672 107.043 25.5393 106.384ZM37.018 103.309C37.787 103.034 38.2813 102.32 38.5009 101.222C38.7206 100.123 38.8305 97.9812 38.8305 94.7957C38.8305 91.6652 38.7206 89.5232 38.5009 88.3698C38.2813 87.2714 37.787 86.5574 37.018 86.2828C36.2491 86.0081 34.7662 85.8434 32.5693 85.8434C30.3724 85.8434 28.8895 86.0081 28.1755 86.2828C27.4066 86.5574 26.9123 87.2714 26.6926 88.3698C26.4729 89.4683 26.3631 91.6102 26.3631 94.7957C26.3631 97.9263 26.4729 100.068 26.6926 101.222C26.9123 102.32 27.4066 103.034 28.1755 103.309C28.9444 103.583 30.3724 103.748 32.5693 103.748C34.7662 103.748 36.2491 103.583 37.018 103.309Z" fill="#3D3D3D"/>
<path d="M72.2241 107.099V89.0841H72.0594L64.6448 107.099H61.7889L54.3743 89.139H54.2096V107.099H50.4199V82.4934H55.9122L63.1619 99.9038H63.3267L70.5765 82.4934H76.0687V107.099H72.2241Z" fill="#3D3D3D"/>
<path d="M90.4598 107.099L82.0566 82.4934H86.2307L93.0411 102.43H93.2059L100.016 82.4934H104.081L95.7323 107.099H90.4598Z" fill="#3D3D3D"/>
<path d="M124.783 107.099L122.587 101.167H112.151L110.064 107.099H106L114.843 82.4934H120.115L128.958 107.099H124.783ZM117.479 86.5577H117.314L113.36 97.5422H121.433L117.479 86.5577Z" fill="#3D3D3D"/>
<path d="M150.436 107.099L138.793 89.853H138.628V107.099H134.783V82.4934H138.957L150.271 99.1349H150.436V82.4934H154.281V107.099H150.436Z" fill="#3D3D3D"/>
<path d="M162.682 107.099V82.4934H166.746V107.099H162.682Z" fill="#3D3D3D"/>
<path d="M175.039 107.099V82.4934H179.103V103.364H190.033V107.099H175.039Z" fill="#3D3D3D"/>
<path d="M196.127 107.099V82.4934H200.191V103.364H211.121V107.099H196.127Z" fill="#3D3D3D"/>
<path d="M233.533 107.099L231.337 101.167H220.901L218.814 107.099H214.75L223.593 82.4934H228.865L237.708 107.099H233.533ZM226.229 86.5577H226.064L222.11 97.5422H230.183L226.229 86.5577Z" fill="#3D3D3D"/>
</svg>
