<svg width="66" height="66" viewBox="0 0 66 66" fill="none" xmlns="http://www.w3.org/2000/svg">
<path d="M0.5 33C0.5 15.0931 15.0931 0.5 33 0.5C50.9069 0.5 65.5 15.0931 65.5 33C65.5 50.9069 50.9069 65.5 33 65.5C15.0931 65.5 0.5 50.9069 0.5 33ZM6.1 33C6.1 47.8291 18.1709 59.9 33 59.9C47.8291 59.9 59.9 47.8291 59.9 33C59.9 18.1709 47.8291 6.1 33 6.1C18.1709 6.1 6.1 18.1709 6.1 33ZM42.4 33C42.4 38.2019 38.2019 42.4 33 42.4C27.7981 42.4 23.6 38.2019 23.6 33C23.6 27.7981 27.7981 23.6 33 23.6C38.2019 23.6 42.4 27.7981 42.4 33Z" fill="#1E1E1E" stroke="#FFD31F"/>
</svg>
