<svg width="24" height="25" viewBox="0 0 24 25" fill="none" xmlns="http://www.w3.org/2000/svg">
<path d="M6.54 5.7973C6.6 6.6873 6.75 7.5573 6.99 8.3873L5.79 9.5873C5.38 8.3873 5.12 7.1173 5.03 5.7973H6.54ZM16.4 17.8173C17.25 18.0573 18.12 18.2073 19 18.2673V19.7573C17.68 19.6673 16.41 19.4073 15.2 19.0073L16.4 17.8173ZM7.5 3.7973H4C3.45 3.7973 3 4.2473 3 4.7973C3 14.1873 10.61 21.7973 20 21.7973C20.55 21.7973 21 21.3473 21 20.7973V17.3073C21 16.7573 20.55 16.3073 20 16.3073C18.76 16.3073 17.55 16.1073 16.43 15.7373C16.33 15.6973 16.22 15.6873 16.12 15.6873C15.86 15.6873 15.61 15.7873 15.41 15.9773L13.21 18.1773C10.38 16.7273 8.06 14.4173 6.62 11.5873L8.82 9.3873C9.1 9.1073 9.18 8.7173 9.07 8.3673C8.7 7.2473 8.5 6.0473 8.5 4.7973C8.5 4.2473 8.05 3.7973 7.5 3.7973Z" fill="#3D3D3D"/>
</svg>
