<svg width="35" height="35" viewBox="0 0 35 35" fill="none" xmlns="http://www.w3.org/2000/svg">
<path d="M29.1665 9.3331C29.1665 6.11135 26.5552 3.5 23.3334 3.5C20.1113 3.5 17.5 6.11135 17.5 9.3331V12.8331C12.4526 12.8331 7.94325 10.5409 4.9469 6.9454C1.9096 13.6174 3.8122 21.6153 9.7174 26.1737C8.06645 27.6538 5.89015 28.5607 3.5 28.5607C6.1467 30.4083 9.36075 31.5 12.8334 31.5C21.8554 31.5 29.1665 24.1857 29.1665 15.1665V11.6665L31.5 9.3331H29.1665ZM23.9155 10.5C23.2729 10.5 22.75 9.97815 22.75 9.3331C22.75 8.6884 23.2729 8.16655 23.9155 8.16655C24.5605 8.16655 25.0834 8.6884 25.0834 9.3331C25.0834 9.97815 24.5605 10.5 23.9155 10.5Z" fill="#1E1E1E"/>
</svg>
