<svg width="103" height="123" viewBox="0 0 103 123" fill="none" xmlns="http://www.w3.org/2000/svg">
<path fill-rule="evenodd" clip-rule="evenodd" d="M9.37891 9.79285C9.37891 8.96442 10.0505 8.29285 10.8789 8.29285H92.1299C92.9584 8.29285 93.6299 8.96442 93.6299 9.79285V32.2111C93.6299 33.0396 92.9584 33.7111 92.1299 33.7111H10.8789C10.0505 33.7111 9.37891 33.0396 9.37891 32.2111V9.79285ZM12.3789 11.2928V30.7111H90.6299V11.2928H12.3789Z" fill="#3D3D3D"/>
<path fill-rule="evenodd" clip-rule="evenodd" d="M59.0117 40.6508C59.0117 39.8223 59.6833 39.1508 60.5117 39.1508H91.0202C91.8486 39.1508 92.5202 39.8223 92.5202 40.6508V50.165C92.5202 50.9934 91.8486 51.665 91.0202 51.665H60.5117C59.6833 51.665 59.0117 50.9934 59.0117 50.165V40.6508ZM62.0117 42.1508V48.665H89.5202V42.1508H62.0117Z" fill="#3D3D3D"/>
<path fill-rule="evenodd" clip-rule="evenodd" d="M10.3605 83.9321C10.3605 83.1037 11.032 82.4321 11.8605 82.4321H91.1393C91.9677 82.4321 92.6393 83.1037 92.6393 83.9321V112.391C92.6393 113.22 91.9677 113.891 91.1393 113.891H11.8605C11.032 113.891 10.3605 113.22 10.3605 112.391V83.9321ZM13.3605 85.4321V110.891H89.6393V85.4321H13.3605Z" fill="#3D3D3D"/>
<path fill-rule="evenodd" clip-rule="evenodd" d="M0.196655 1.76379C0.196655 0.935367 0.868228 0.263794 1.69666 0.263794H101.303C102.132 0.263794 102.803 0.935367 102.803 1.76379V120.582C102.803 121.411 102.132 122.082 101.303 122.082H1.69666C0.868228 122.082 0.196655 121.411 0.196655 120.582V1.76379ZM3.19666 3.26379V119.082H99.8034V3.26379H3.19666Z" fill="#3D3D3D"/>
<path d="M54.665 82.3126L54.2458 82.55L54.2396 82.4541L44.7349 87.749L44.8117 87.8058L44.3881 88.0404L29.3827 59.5099L26.8346 54.6615L23.3547 48.0466L25.7779 46.6929L26.3923 46.3535L30.6782 43.9619L33.6316 42.3187L36.4487 47.6718L41.2237 56.751L54.665 82.3126Z" fill="#FFD31F"/>
<path fill-rule="evenodd" clip-rule="evenodd" d="M34.0823 40.8721C34.4624 40.9805 34.7793 41.2378 34.9632 41.5872L55.9927 81.5731C56.372 82.2944 56.0933 83.2061 55.3678 83.617L54.9487 83.8545C54.7913 83.9436 54.6227 84.003 54.4509 84.0324L45.914 88.7881C45.7979 88.9183 45.6596 89.03 45.5032 89.1166L45.0797 89.3511C44.7267 89.5465 44.3152 89.5952 43.9358 89.4865C43.5563 89.3779 43.2399 89.1207 43.0563 88.7716L28.0539 60.2471L22.0271 48.7863C21.646 48.0618 21.9289 47.1459 22.66 46.7375L25.0892 45.3805L25.7005 45.0429L32.9373 41.0096C33.2903 40.8132 33.7022 40.7638 34.0823 40.8721ZM44.9836 85.9037L52.6026 81.6594L39.8926 57.4888L32.9961 44.3786L27.086 47.6738L26.475 48.0112L25.3777 48.6242L30.7153 58.775L44.9836 85.9037Z" fill="#3D3D3D"/>
<path fill-rule="evenodd" clip-rule="evenodd" d="M55.3819 81.2116C55.8241 81.4477 56.1105 81.8963 56.1431 82.4037L56.1492 82.4995C56.1502 82.5147 56.1509 82.5298 56.1514 82.545L56.5706 94.9208C56.5902 95.4994 56.277 96.0481 55.7653 96.3314C55.2536 96.6148 54.6344 96.5824 54.1733 96.2482L44.3356 89.1191L44.3234 89.1101L44.2467 89.0534C43.8414 88.753 43.6227 88.261 43.6666 87.748C43.7106 87.2351 44.0111 86.7722 44.4638 86.52L53.9528 81.2343C54.402 80.9841 54.9398 80.9756 55.3819 81.2116ZM53.2348 85.0325L53.4699 91.9728L47.9528 87.9747L53.2348 85.0325Z" fill="#3D3D3D"/>
</svg>
