<svg width="76" height="76" viewBox="0 0 76 76" fill="none" xmlns="http://www.w3.org/2000/svg">
<path d="M41.6666 12.825V12.325H41.1666H34.8333H34.3333V12.825V25.077L31.4158 26.7691L31.414 26.7701C27.3689 29.138 24.8333 33.4806 24.8333 38.1583C24.8333 45.4328 30.7255 51.325 38 51.325C45.2744 51.325 51.1666 45.4328 51.1666 38.1583C51.1666 33.4825 48.6643 29.1382 44.5844 26.7692L44.5841 26.7691L41.6666 25.077V12.825ZM28.7511 22.1556L29 22.0111V21.7233V6.99164H47V21.7233V22.0111L47.2488 22.1556C52.771 25.3641 56.5 31.3154 56.5 38.1583C56.5 48.3638 48.2055 56.6583 38 56.6583C27.7944 56.6583 19.5 48.3638 19.5 38.1583C19.5 31.3154 23.2289 25.3641 28.7511 22.1556ZM20.6688 59.2176L15.7056 64.2086L11.9477 60.4507L16.9109 55.4597L20.6688 59.2176ZM40.6666 63.8333V72.3333H35.3333V63.8333H40.6666ZM3.66663 35.3333H12.1666V40.6666H3.66663V35.3333ZM63.8333 35.3333H72.3333V40.6666H63.8333V35.3333ZM64.0185 60.4843L60.2626 64.2402L55.2994 59.2493L59.0276 55.5211L64.0185 60.4843Z" fill="black" stroke="#FFD31F"/>
</svg>
