<svg width="78" height="52" viewBox="0 0 78 52" fill="none" xmlns="http://www.w3.org/2000/svg">
<path d="M70.8955 26.0408L71.0555 25.7247L70.8955 25.4086C64.9228 13.6073 52.6934 6.15991 39 6.15991C25.3066 6.15991 13.0772 13.6073 7.10452 25.4086L6.94455 25.7247L7.10452 26.0408C13.0772 37.842 25.3066 45.2894 39 45.2894C52.6934 45.2894 64.9228 37.842 70.8955 26.0408ZM0.756979 25.7247C6.85198 11.0703 21.6611 0.7 39 0.7C56.3389 0.7 71.148 11.0703 77.243 25.7247C71.148 40.3791 56.3389 50.7493 39 50.7493C21.6611 50.7493 6.85198 40.3791 0.756979 25.7247ZM48.5636 25.7247C48.5636 20.5831 44.2573 16.4498 39 16.4498C33.7427 16.4498 29.4364 20.5831 29.4364 25.7247C29.4364 30.8663 33.7427 34.9996 39 34.9996C44.2573 34.9996 48.5636 30.8663 48.5636 25.7247ZM23.7455 25.7247C23.7455 17.6266 30.5718 10.9899 39 10.9899C47.4282 10.9899 54.2545 17.6266 54.2545 25.7247C54.2545 33.8227 47.4282 40.4595 39 40.4595C30.5718 40.4595 23.7455 33.8227 23.7455 25.7247Z" fill="black" stroke="#FFD31F" stroke-width="1.4"/>
</svg>
